<svg width="545" height="523" viewBox="0 0 545 523" fill="none" xmlns="http://www.w3.org/2000/svg">
<g filter="url(#filter0_d_333_6730)">
<rect x="47.1641" y="152.483" width="488" height="260" rx="20" transform="rotate(10.2958 47.1641 152.483)" fill="white"/>
</g>
<path d="M100.635 366.262L98.6298 377.301L92.2659 376.145L97.8966 345.149L111.577 347.634C115.04 348.263 117.453 349.67 118.815 351.855C120.017 353.773 120.356 356.175 119.831 359.061C119.218 362.438 117.788 364.891 115.543 366.421C113.57 367.762 111.256 368.191 108.601 367.709L100.635 366.262ZM101.602 360.937L107.533 362.015C110.881 362.623 112.836 361.383 113.397 358.295C113.963 355.178 112.572 353.315 109.224 352.707L103.293 351.63L101.602 360.937ZM139.999 383.251L139.724 384.766L133.231 383.587C132.897 382.96 132.808 382.139 132.963 381.123C131.034 382.711 128.555 383.229 125.525 382.679C123.302 382.275 121.636 381.272 120.526 379.669C119.629 378.373 119.356 376.758 119.707 374.825C120.231 371.939 121.758 370.099 124.287 369.306C125.362 368.965 127.405 368.8 130.414 368.81L135.247 368.793L135.503 367.14C135.752 365.605 134.736 364.631 132.456 364.217C130.984 363.949 129.903 363.991 129.213 364.343C128.557 364.671 128.05 365.414 127.691 366.571L121.976 365.533C123.282 360.314 127.023 358.266 133.199 359.388C136.605 360.006 138.948 361.058 140.228 362.543C141.375 363.944 141.736 365.813 141.312 368.151L138.984 380.965C138.795 382.004 139.134 382.766 139.999 383.251ZM134.594 372.386L130.041 372.588C128.748 372.651 127.748 372.902 127.042 373.34C126.365 373.783 125.954 374.409 125.807 375.217C125.508 376.862 126.426 377.879 128.562 378.267C131.65 378.828 133.544 377.428 134.244 374.067L134.594 372.386ZM162.46 365.195L168.131 366.225L164.002 388.953C163.358 392.503 161.785 394.841 159.285 395.967C157.183 396.867 154.502 397.021 151.241 396.429C147.835 395.81 145.371 394.602 143.849 392.805C142.592 391.355 142.087 389.787 142.334 388.103L148.481 389.219C148.647 391.098 149.898 392.249 152.236 392.674C153.708 392.941 155.033 392.705 156.211 391.965C157.252 391.319 157.928 390.145 158.237 388.442L158.858 385.022C157.515 386.18 156.32 386.931 155.273 387.278C154.226 387.624 153.025 387.675 151.668 387.428C148.696 386.888 146.564 385.249 145.272 382.51C144.12 380.154 143.835 377.374 144.417 374.171C145.104 370.39 146.689 367.488 149.174 365.465C151.335 363.74 153.686 363.109 156.226 363.571C158.708 364.021 160.597 365.602 161.894 368.312L162.46 365.195ZM156.534 368.769C155.091 368.507 153.801 368.959 152.665 370.124C151.558 371.294 150.811 372.947 150.423 375.083C150.051 377.132 150.185 378.856 150.825 380.254C151.494 381.657 152.55 382.49 153.994 382.752C155.494 383.025 156.851 382.616 158.063 381.524C159.201 380.508 159.962 378.947 160.344 376.84C160.759 374.56 160.552 372.659 159.726 371.138C159.012 369.816 157.948 369.026 156.534 368.769ZM191.378 383.909L175.966 381.109C175.717 382.972 175.767 384.337 176.116 385.206C176.722 386.628 177.92 387.501 179.71 387.826C181.932 388.23 183.586 387.576 184.672 385.866L190.56 386.935C189.487 389.066 187.863 390.619 185.688 391.596C183.547 392.548 181.193 392.791 178.624 392.325C175.132 391.69 172.66 390.034 171.209 387.355C169.936 385.007 169.604 382.16 170.212 378.812C170.951 374.742 172.59 371.79 175.13 369.956C177.352 368.392 179.992 367.888 183.052 368.444C185.389 368.868 187.334 369.818 188.885 371.292C190.435 372.766 191.397 374.61 191.77 376.825C192.083 378.551 192.032 380.554 191.618 382.834C191.565 383.123 191.485 383.481 191.378 383.909ZM185.903 378.845C186.222 375.444 184.982 373.49 182.183 372.981C179.556 372.504 177.751 373.906 176.768 377.185L185.903 378.845ZM221.144 399.557L212.569 375.863L208.676 397.292L202.313 396.136L207.943 365.139L214.48 366.327L222.945 389.643L226.775 368.56L233.139 369.716L227.508 400.713L221.144 399.557ZM247.673 380.182C251.454 380.869 254.134 382.608 255.714 385.4C257.097 387.797 257.474 390.728 256.845 394.191C256.121 398.174 254.426 401.026 251.758 402.748C249.431 404.233 246.622 404.677 243.332 404.079C239.551 403.392 236.868 401.668 235.283 398.905C233.905 396.479 233.531 393.534 234.16 390.07C234.878 386.116 236.572 383.279 239.24 381.557C241.572 380.043 244.383 379.585 247.673 380.182ZM246.8 384.988C245.184 384.694 243.765 385.122 242.542 386.271C241.325 387.392 240.522 389.02 240.134 391.156C239.715 393.465 239.933 395.382 240.789 396.909C241.565 398.213 242.704 399.001 244.205 399.274C245.821 399.568 247.238 399.154 248.455 398.034C249.706 396.889 250.526 395.25 250.914 393.114C251.328 390.834 251.093 388.928 250.209 387.396C249.437 386.063 248.301 385.26 246.8 384.988ZM274.196 385.492L273.48 389.432L269.454 388.7L267.134 401.471C266.982 402.308 267.022 402.912 267.253 403.282C267.512 403.657 268.046 403.918 268.855 404.065C269.518 404.185 270.417 404.08 271.55 403.749C271.647 403.707 271.727 403.677 271.79 403.659L271.744 407.854C269.763 408.419 267.777 408.52 265.785 408.158C261.889 407.45 260.266 405.307 260.916 401.728L263.48 387.615L260.536 387.08L261.252 383.141L264.196 383.676L264.888 379.866L271.483 377.531L270.17 384.761L274.196 385.492ZM292.735 398.788L290.313 412.122L283.949 410.966L289.58 379.969L311.356 383.925L310.388 389.249L294.977 386.45L293.703 393.463L307.296 395.932L306.329 401.257L292.735 398.788ZM323.814 394.014C327.595 394.701 330.275 396.44 331.855 399.231C333.238 401.629 333.615 404.559 332.986 408.023C332.262 412.005 330.566 414.858 327.898 416.579C325.571 418.064 322.763 418.508 319.473 417.911C315.692 417.224 313.009 415.499 311.424 412.737C310.046 410.31 309.672 407.365 310.301 403.902C311.019 399.948 312.712 397.11 315.38 395.389C317.712 393.874 320.524 393.416 323.814 394.014ZM322.941 398.819C321.325 398.526 319.905 398.953 318.683 400.103C317.466 401.223 316.663 402.851 316.275 404.987C315.856 407.296 316.074 409.214 316.929 410.741C317.706 412.044 318.845 412.833 320.346 413.105C321.962 413.399 323.379 412.985 324.596 411.865C325.847 410.721 326.667 409.081 327.055 406.945C327.469 404.665 327.234 402.759 326.349 401.227C325.578 399.894 324.442 399.092 322.941 398.819ZM355.606 423.983L349.675 422.905L350.265 419.658C348.198 421.847 345.678 422.671 342.705 422.131C340.079 421.654 338.229 420.513 337.156 418.708C336.248 417.142 336.009 415.175 336.439 412.809L339.254 397.31L345.228 398.396L342.641 412.639C342.143 415.38 343.164 416.982 345.703 417.443C347.147 417.705 348.374 417.511 349.387 416.86C350.428 416.215 351.075 415.199 351.327 413.814L353.843 399.961L359.774 401.038L355.606 423.983ZM365.428 402.065L371.403 403.15L370.813 406.397C372.88 404.209 375.385 403.382 378.329 403.917C380.956 404.394 382.805 405.535 383.879 407.34C384.782 408.935 385.018 410.916 384.588 413.282L381.781 428.737L375.85 427.66L378.437 413.417C378.935 410.675 377.9 409.071 375.331 408.604C373.888 408.342 372.658 408.551 371.64 409.231C370.627 409.882 369.998 410.885 369.751 412.242L367.235 426.095L361.26 425.01L365.428 402.065ZM413.412 402.464L407.781 433.46L401.807 432.375L402.271 429.821C400.518 431.59 398.242 432.22 395.443 431.711C392.413 431.161 390.204 429.448 388.819 426.572C387.625 424.119 387.321 421.277 387.908 418.044C388.606 414.206 390.166 411.359 392.59 409.504C394.702 407.89 397.085 407.324 399.741 407.806C402.54 408.315 404.453 409.765 405.479 412.158L407.437 401.378L413.412 402.464ZM400.194 412.942C398.693 412.669 397.363 413.099 396.204 414.23C395.044 415.36 394.273 416.979 393.89 419.086C393.513 421.164 393.654 422.934 394.312 424.395C395.005 425.833 396.116 426.691 397.646 426.968C399.176 427.246 400.503 426.832 401.629 425.724C402.783 424.622 403.551 423.018 403.934 420.911C404.322 418.775 404.169 416.988 403.477 415.551C402.789 414.084 401.695 413.215 400.194 412.942Z" fill="#FF7F48"/>
<path d="M227.783 245.178L217.885 299.666L227.478 301.409L224.503 317.781L214.91 316.038L212.773 327.805L201.17 334.947L192.216 333.32L195.98 312.599L161.19 306.279L163.513 293.489L209.748 241.901L227.783 245.178ZM204.159 267.576L181.943 293.137L198.954 296.227L204.159 267.576ZM300.583 307.025C298.151 320.413 293.626 330.777 287.007 338.119C279.721 346.221 270.792 349.311 260.218 347.391C249.559 345.454 242.264 339.549 238.333 329.674C234.649 320.372 234.039 308.942 236.502 295.384C238.995 281.656 243.664 270.744 250.508 262.651C257.816 253.937 266.715 250.532 277.203 252.437C289.141 254.606 296.828 262.477 300.264 276.049C302.552 285.274 302.659 295.599 300.583 307.025ZM262.785 331.077C267.561 331.944 271.459 329.393 274.482 323.424C277.473 317.625 279.642 311.017 280.99 303.598C282.26 296.606 282.767 289.695 282.51 282.866C282.206 274.355 279.454 269.626 274.252 268.682C269.392 267.799 265.412 271.039 262.312 278.404C259.6 284.606 257.555 291.501 256.176 299.09C254.735 307.021 254.403 314.183 255.179 320.578C255.987 326.803 258.522 330.302 262.785 331.077ZM370.429 271.09L360.531 325.578L370.124 327.321L367.149 343.693L357.556 341.95L355.419 353.718L343.816 360.859L334.862 359.232L338.626 338.512L303.836 332.192L306.159 319.401L352.394 267.814L370.429 271.09ZM346.805 293.488L324.589 319.049L341.6 322.14L346.805 293.488Z" fill="#4D002E"/>
<circle cx="264" cy="10" r="10" fill="#000D21"/>
<path d="M65.5 177.5L265 9.5L503.5 260" stroke="#000D21" stroke-width="5" stroke-linecap="round"/>
<defs>
<filter id="filter0_d_333_6730" x="3.94336" y="155.732" width="540.114" height="366.536" filterUnits="userSpaceOnUse" color-interpolation-filters="sRGB">
<feFlood flood-opacity="0" result="BackgroundImageFix"/>
<feColorMatrix in="SourceAlpha" type="matrix" values="0 0 0 0 0 0 0 0 0 0 0 0 0 0 0 0 0 0 127 0" result="hardAlpha"/>
<feOffset dx="10" dy="20"/>
<feGaussianBlur stdDeviation="5"/>
<feComposite in2="hardAlpha" operator="out"/>
<feColorMatrix type="matrix" values="0 0 0 0 0 0 0 0 0 0.0527211 0 0 0 0 0.129167 0 0 0 0.1 0"/>
<feBlend mode="normal" in2="BackgroundImageFix" result="effect1_dropShadow_333_6730"/>
<feBlend mode="normal" in="SourceGraphic" in2="effect1_dropShadow_333_6730" result="shape"/>
</filter>
</defs>
</svg>
