<svg width="236" height="53" viewBox="0 0 236 53" fill="none" xmlns="http://www.w3.org/2000/svg">
<path d="M9.16513 17.075V24.5996H11.3583V13.2427H9.02662L5.65606 19.7156L2.33168 13.2427H0V24.5996H2.19317V17.075L5.07891 22.6834H6.27939L9.16513 17.075Z" fill="black"/>
<path d="M20.8467 24.6005H23.086L18.8151 13.2202H16.8759L12.605 24.6005H14.8443L15.8832 21.7729H19.8078L20.8467 24.6005ZM16.2526 20.2306L17.8686 15.7673L19.4153 20.2306H16.2526Z" fill="black"/>
<path d="M26.5257 17.3087L32.2972 24.5996H34.0748V13.2427H31.8816V20.6971L26.0178 13.2427H24.3325V24.5996H26.5257V17.3087Z" fill="black"/>
<path d="M43.7479 14.4344C43.4247 14.0839 43.0554 13.7801 42.6167 13.5698C42.1781 13.3595 41.6933 13.2427 41.1854 13.2427H36.4297V24.5996H38.6229V20.7906H41.2777C41.7856 20.7906 42.2704 20.6737 42.7091 20.4634C43.1477 20.2531 43.5171 19.9727 43.8172 19.6222C44.1173 19.2716 44.3713 18.8744 44.5329 18.407C44.6945 17.963 44.7868 17.4957 44.7868 17.0049C44.7868 16.5376 44.6945 16.0936 44.5098 15.6262C44.302 15.1822 44.0481 14.785 43.7479 14.4344ZM42.1319 18.3603C41.8549 18.6874 41.5317 18.851 41.1161 18.851H38.5767V15.1589H41.0238C41.2085 15.1589 41.3932 15.2056 41.5779 15.2757C41.7625 15.3458 41.9241 15.486 42.0627 15.6262C42.2012 15.7898 42.3166 15.9767 42.3859 16.2104C42.4782 16.4441 42.5013 16.7012 42.5013 16.9816C42.5475 17.5891 42.409 18.0331 42.1319 18.3603Z" fill="black"/>
<path d="M56.1454 21.1183C56.4224 20.4406 56.5609 19.7162 56.5609 18.945C56.5609 18.2206 56.4224 17.5196 56.1685 16.8186C55.9145 16.1175 55.5451 15.5099 55.0603 14.9491C54.5755 14.4116 54.0215 13.9676 53.352 13.6171C52.6825 13.29 51.9437 13.103 51.1357 13.103C50.3508 13.103 49.612 13.2666 48.9425 13.5704C48.273 13.8742 47.6728 14.3182 47.188 14.8556C46.7032 15.3931 46.3107 16.0007 46.0337 16.7017C45.7567 17.4028 45.6182 18.1272 45.6182 18.8749C45.6182 19.5994 45.7567 20.3004 46.0106 21.0014C46.2646 21.7025 46.657 22.3101 47.1188 22.8475C47.5805 23.385 48.1807 23.829 48.8502 24.1561C49.5197 24.4833 50.2584 24.6469 51.0895 24.6469C51.8745 24.6469 52.6132 24.4833 53.2827 24.1795C53.9522 23.8757 54.5293 23.4317 55.0142 22.9176C55.499 22.4269 55.8683 21.8193 56.1454 21.1183ZM54.1369 20.3004C53.9984 20.7444 53.7906 21.165 53.5136 21.5155C53.2365 21.8894 52.8902 22.1698 52.4747 22.3802C52.0592 22.5905 51.5974 22.7073 51.0665 22.7073C50.5586 22.7073 50.0968 22.5905 49.6813 22.3802C49.2657 22.1698 48.9425 21.8894 48.6424 21.5389C48.3654 21.1884 48.1576 20.7911 47.996 20.3238C47.8575 19.8564 47.7652 19.389 47.7652 18.8983C47.7652 18.431 47.8344 17.9636 47.9729 17.5196C48.1114 17.0756 48.3192 16.655 48.5963 16.3045C48.8733 15.9539 49.2196 15.6501 49.6351 15.4398C50.0507 15.2295 50.5124 15.1127 51.0434 15.1127C51.5513 15.1127 52.013 15.2062 52.4054 15.4165C52.821 15.6268 53.1442 15.9072 53.4443 16.2577C53.7213 16.6082 53.9291 17.0055 54.0907 17.4729C54.2523 17.9402 54.3216 18.4076 54.3216 18.8983C54.3677 19.389 54.2985 19.8564 54.1369 20.3004Z" fill="black"/>
<path d="M63.0477 24.5996L64.9869 19.8325L66.9261 24.5996H68.773L73.344 13.2427H70.9661L67.7803 22.0758L66.372 18.4304L68.2882 13.266H66.2566L64.9869 17.0283L63.7171 13.266H61.7087L63.6017 18.4304L62.1935 22.0758L59.0076 13.2427H56.6528L61.2008 24.5996H63.0477Z" fill="black"/>
<path d="M82.3016 22.66H76.6917V19.7156H81.4243V17.9163H76.6917V15.1822H82.1631V13.2427H74.4985V24.5996H82.3016V22.66Z" fill="black"/>
<path d="M90.543 20.3241C91.1663 20.0671 91.6511 19.6231 92.0205 19.0155C92.3898 18.4079 92.5745 17.7303 92.5745 17.0058C92.5745 16.5385 92.4822 16.0945 92.2975 15.6271C92.1128 15.1831 91.8589 14.7625 91.5587 14.412C91.2355 14.0615 90.8662 13.7577 90.4275 13.5474C89.9889 13.3371 89.5041 13.2202 88.9962 13.2202H84.0327V24.6005H86.2259V20.7915H88.3729L90.6584 24.6005H93.1055L90.543 20.3241ZM90.2428 17.7303C90.1736 17.9639 90.0582 18.1509 89.9427 18.3145C89.8273 18.478 89.6657 18.6182 89.481 18.7117C89.2963 18.8052 89.1116 18.8519 88.9269 18.8519H86.1797V15.1598H88.8346C89.0193 15.1598 89.204 15.2065 89.3887 15.3C89.5734 15.3935 89.7349 15.5103 89.8735 15.6739C90.012 15.8374 90.1274 16.0244 90.2198 16.2581C90.3121 16.4917 90.3352 16.7254 90.3352 17.0058C90.3583 17.2629 90.3121 17.5199 90.2428 17.7303Z" fill="black"/>
<path d="M100.516 19.9026H104.995V18.1032H100.516V15.1822H105.895V13.2427H98.3462V24.5996H100.516V19.9026Z" fill="black"/>
<path d="M117.046 21.1183C117.323 20.4406 117.462 19.7162 117.462 18.945C117.462 18.2206 117.323 17.5196 117.069 16.8186C116.815 16.1175 116.446 15.5099 115.961 14.9491C115.476 14.4116 114.922 13.9676 114.253 13.6171C113.583 13.29 112.845 13.103 112.037 13.103C111.252 13.103 110.513 13.2666 109.843 13.5704C109.174 13.8742 108.574 14.3182 108.089 14.8556C107.604 15.3931 107.212 16.0007 106.935 16.7017C106.658 17.4028 106.519 18.1272 106.519 18.8749C106.519 19.5994 106.658 20.3004 106.912 21.0014C107.165 21.7025 107.558 22.3101 108.02 22.8475C108.481 23.385 109.082 23.829 109.751 24.1561C110.421 24.4833 111.159 24.6469 111.99 24.6469C112.775 24.6469 113.514 24.4833 114.184 24.1795C114.853 23.8757 115.43 23.4317 115.915 22.9176C116.4 22.4269 116.769 21.8193 117.046 21.1183ZM115.038 20.3004C114.899 20.7444 114.691 21.165 114.414 21.5155C114.137 21.8894 113.791 22.1698 113.376 22.3802C112.96 22.5905 112.498 22.7073 111.967 22.7073C111.459 22.7073 110.998 22.5905 110.582 22.3802C110.167 22.1698 109.843 21.8894 109.543 21.5389C109.266 21.1884 109.059 20.7911 108.897 20.3238C108.758 19.8564 108.666 19.389 108.666 18.8983C108.666 18.431 108.735 17.9636 108.874 17.5196C109.012 17.0756 109.22 16.655 109.497 16.3045C109.774 15.9539 110.12 15.6501 110.536 15.4398C110.952 15.2295 111.413 15.1127 111.944 15.1127C112.452 15.1127 112.914 15.2062 113.306 15.4165C113.699 15.6268 114.045 15.9072 114.345 16.2577C114.622 16.6082 114.83 17.0055 114.992 17.4729C115.153 17.9402 115.222 18.4076 115.222 18.8983C115.269 19.389 115.199 19.8564 115.038 20.3004Z" fill="black"/>
<path d="M127.135 19.0155C127.504 18.4079 127.689 17.7303 127.689 17.0058C127.689 16.5385 127.596 16.0945 127.412 15.6271C127.227 15.1831 126.973 14.7625 126.673 14.412C126.35 14.0615 125.98 13.7577 125.542 13.5474C125.103 13.3371 124.618 13.2202 124.11 13.2202H119.147V24.6005H121.34V20.7915H123.487L125.773 24.6005H128.22L125.657 20.3241C126.281 20.0671 126.788 19.6231 127.135 19.0155ZM125.38 17.7303C125.311 17.9639 125.196 18.1509 125.08 18.3145C124.965 18.478 124.803 18.6182 124.618 18.7117C124.434 18.8052 124.249 18.8519 124.064 18.8519H121.317V15.1598H123.972C124.157 15.1598 124.341 15.2065 124.526 15.3C124.711 15.3935 124.872 15.5103 125.011 15.6739C125.149 15.8374 125.265 16.0244 125.357 16.2581C125.449 16.4917 125.473 16.7254 125.473 17.0058C125.496 17.2629 125.449 17.5199 125.38 17.7303Z" fill="black"/>
<path d="M140.455 24.249C141.079 23.9453 141.586 23.548 141.979 23.0339C142.371 22.5198 142.672 21.9122 142.856 21.2346C143.041 20.5569 143.133 19.8091 143.133 19.038V13.2427H140.963V19.038C140.963 19.5053 140.917 19.9727 140.825 20.4167C140.732 20.8607 140.571 21.2579 140.363 21.5851C140.155 21.9356 139.855 22.216 139.509 22.4263C139.162 22.6366 138.724 22.7535 138.193 22.7535C137.685 22.7535 137.269 22.66 136.9 22.4497C136.531 22.2394 136.277 21.959 136.046 21.6318C135.838 21.2813 135.676 20.9074 135.584 20.4634C135.492 20.0194 135.446 19.5521 135.446 19.0847V13.2894H133.252V19.0847C133.252 19.8325 133.345 20.5335 133.506 21.2112C133.691 21.8889 133.968 22.4964 134.361 23.0105C134.753 23.5246 135.261 23.9453 135.884 24.249C136.508 24.5528 137.269 24.7164 138.17 24.7164C139.093 24.693 139.832 24.5295 140.455 24.249Z" fill="black"/>
<path d="M3.64768 30.886C3.76311 30.7691 3.83237 30.6056 3.83237 30.442C3.83237 30.2784 3.76311 30.1148 3.64768 29.998C3.53225 29.8811 3.37065 29.811 3.18596 29.811C3.00127 29.811 2.83967 29.8811 2.72424 29.998C2.60881 30.1148 2.53955 30.2784 2.53955 30.442C2.53955 30.6056 2.60881 30.7691 2.72424 30.886C2.83967 31.0028 3.00127 31.0729 3.18596 31.0729C3.37065 31.0729 3.53225 31.0028 3.64768 30.886Z" fill="black"/>
<path d="M3.90112 32.359C3.71643 32.1721 3.48557 32.0085 3.23163 31.915C2.97768 31.7982 2.70065 31.7515 2.37745 31.7515C2.03116 31.7515 1.73104 31.8216 1.45401 31.9618C1.17697 32.102 0.923029 32.2889 0.715255 32.5226C0.507481 32.7563 0.345879 33.0367 0.230449 33.3405C0.11502 33.6443 0.0688477 33.9714 0.0688477 34.322C0.0688477 34.6024 0.11502 34.8594 0.207364 35.1165C0.299707 35.3735 0.438223 35.6072 0.622911 35.8175C0.807599 36.0278 1.06154 36.1914 1.38475 36.3316C1.68487 36.4484 2.05424 36.5186 2.51596 36.5186H4.47827V33.9481C4.47827 33.6209 4.4321 33.3405 4.33975 33.0601C4.22432 32.7797 4.08581 32.5693 3.90112 32.359ZM3.23163 35.2333H2.46979C2.30819 35.2333 2.16967 35.2099 2.03116 35.1632C1.89264 35.1165 1.77721 35.0464 1.66178 34.9763C1.54635 34.8828 1.47709 34.7659 1.40783 34.6257C1.33858 34.4855 1.31549 34.2986 1.31549 34.1116C1.31549 33.9247 1.33858 33.7845 1.40783 33.6443C1.45401 33.5041 1.54635 33.3872 1.63869 33.2938C1.73104 33.2003 1.84647 33.1068 1.9619 33.0601C2.07733 33.0133 2.19276 32.9666 2.33127 32.9666C2.63139 32.9666 2.86225 33.0834 3.02385 33.2938C3.18545 33.5274 3.25471 33.8312 3.25471 34.2518V35.2333H3.23163Z" fill="black"/>
<path d="M1.50041 31.0729C1.6851 31.0729 1.8467 31.0028 1.96213 30.886C2.07756 30.7691 2.14682 30.6056 2.14682 30.442C2.14682 30.2784 2.07756 30.1148 1.96213 29.998C1.8467 29.8811 1.6851 29.811 1.50041 29.811C1.31572 29.811 1.15412 29.8811 1.03869 29.998C0.923262 30.1148 0.854004 30.2784 0.854004 30.442C0.854004 30.6056 0.923262 30.7691 1.03869 30.886C1.15412 31.0028 1.31572 31.0729 1.50041 31.0729Z" fill="black"/>
<path d="M14.1519 35.1639C13.9441 35.1172 13.7594 35.0237 13.5978 34.9069C13.4362 34.79 13.3208 34.6498 13.2054 34.4862C13.113 34.3226 13.0668 34.1357 13.0668 33.9254C13.0668 33.6216 13.1823 33.3646 13.3901 33.201C13.5978 33.014 13.8979 32.9206 14.2904 32.9206C14.4289 32.9206 14.5674 32.9206 14.729 32.9439C14.8676 32.9673 15.0292 32.9907 15.2138 33.014L15.3754 31.7755C15.1215 31.7288 14.9137 31.7054 14.706 31.6821C14.5213 31.6587 14.3366 31.6587 14.175 31.6587C13.7594 31.6587 13.4131 31.7288 13.113 31.8456C12.8129 31.9625 12.582 32.1261 12.3743 32.313C12.1896 32.4999 12.0511 32.7336 11.9587 32.9907C11.8664 33.2477 11.8202 33.5048 11.8202 33.7618C11.8202 34.089 11.8895 34.3928 12.0049 34.6498C12.1434 34.9069 12.2819 35.1172 12.4897 35.2807H11.1276H11.0584H10.7352C10.3889 35.2807 10.1349 35.1873 9.99641 35.0003C9.83481 34.8134 9.76555 34.533 9.76555 34.1591C9.76555 33.8319 9.71938 33.5048 9.65012 33.2243C9.58087 32.9439 9.44235 32.6869 9.28075 32.4766C9.09606 32.2663 8.8652 32.1027 8.58817 31.9858C8.28805 31.869 7.94176 31.7989 7.52621 31.7989H6.2334V33.014H7.27227C7.57239 33.014 7.80325 33.0608 7.96485 33.1309C8.12645 33.201 8.26497 33.3178 8.35731 33.458C8.44965 33.5982 8.49583 33.7852 8.51891 33.9955C8.542 34.2292 8.542 34.4862 8.542 34.7666C8.542 34.9536 8.51891 35.0938 8.44965 35.1873C8.3804 35.2807 8.28805 35.3275 8.10336 35.3275H5.65625V36.5893H8.21879C8.49583 36.5893 8.77286 36.5192 9.00372 36.4024C9.23458 36.2856 9.39618 36.0986 9.53469 35.8649C9.65012 36.0519 9.78864 36.2155 9.99641 36.3557C10.1811 36.4959 10.435 36.566 10.7352 36.566H11.0815H11.1507H15.791V35.3041H14.8445C14.5674 35.234 14.3597 35.2106 14.1519 35.1639Z" fill="black"/>
<path d="M37.5608 35.2318H36.4065C36.3834 35.2318 36.3603 35.2318 36.3372 35.2318H35.9447C35.737 35.2318 35.5523 35.2084 35.4368 35.1383C35.3214 35.0682 35.206 34.9981 35.1598 34.9047C35.1136 34.8112 35.0444 34.7177 35.0444 34.6242C35.0213 34.5308 35.0213 34.4373 35.0213 34.3672C35.0213 33.5493 34.8366 32.9184 34.4672 32.4744C34.0979 32.0304 33.5669 31.7967 32.8512 31.7967C32.528 31.7967 32.2279 31.8668 31.974 31.9837C31.6969 32.1005 31.4661 32.2874 31.2583 32.4977C31.0505 32.7081 30.912 32.9651 30.7966 33.2689C30.6811 33.5727 30.635 33.8765 30.635 34.227C30.635 34.4373 30.6119 34.6009 30.5888 34.7411C30.5426 34.8813 30.4964 34.9748 30.4503 35.0682C30.381 35.1383 30.3118 35.1851 30.2425 35.2318C30.1732 35.2552 30.0809 35.2786 30.0116 35.2786H29.5961C29.573 35.2786 29.5499 35.2786 29.5038 35.2786H29.2036C28.8343 35.2786 28.6034 35.1851 28.4649 34.9981C28.3264 34.8112 28.2571 34.5775 28.2571 34.2737V32.194H27.0336V34.7177C27.0336 34.9047 27.0105 35.0215 26.9412 35.1383C26.895 35.2318 26.7796 35.3019 26.5949 35.3019H26.341C25.9716 35.3019 25.7407 35.2084 25.6022 35.0215C25.4637 34.8346 25.3944 34.6009 25.3944 34.2971V32.8015H24.1478V34.7411C24.1478 34.928 24.1247 35.0449 24.0785 35.1617C24.0324 35.2552 23.9169 35.3253 23.7553 35.3253H23.5707C23.2013 35.3253 22.9473 35.2318 22.8088 35.0215C22.6703 34.8346 22.601 34.5775 22.601 34.3205V33.2689H21.3775V34.8112C21.3775 34.9981 21.3544 35.1383 21.2851 35.2084C21.2159 35.3019 21.1235 35.3487 20.9389 35.3487H19.092H19.0458H18.3532V28.7822H17.0835V36.5171H18.9996H19.0458H20.8927C21.1928 36.5171 21.4698 36.4703 21.7238 36.3301C21.9777 36.2133 22.1624 36.0263 22.3009 35.7926C22.3933 35.9796 22.5318 36.1432 22.7396 36.2834C22.9242 36.4236 23.1782 36.4937 23.5014 36.4937H23.7784C24.0555 36.4937 24.3094 36.447 24.5403 36.3067C24.7711 36.1899 24.9558 36.003 25.0943 35.7693C25.1867 35.9562 25.3252 36.1198 25.5099 36.26C25.6946 36.4002 25.9485 36.4703 26.2717 36.4703H26.5718C26.8719 36.4703 27.149 36.4002 27.4029 36.2834C27.6569 36.1665 27.8416 35.9796 27.957 35.7459C28.0493 35.9329 28.2109 36.0964 28.3956 36.26C28.5803 36.4002 28.8343 36.4703 29.1805 36.4703H29.573H29.6423H30.0578C30.2887 36.4703 30.5195 36.4002 30.7042 36.26C30.8889 36.1198 31.0274 35.9329 31.1429 35.7225C31.3275 35.9562 31.5353 36.1432 31.8123 36.3067C32.0894 36.447 32.4357 36.5171 32.8281 36.5171C33.0128 36.5171 33.1744 36.5171 33.336 36.4937C33.4976 36.4703 33.6592 36.447 33.8208 36.4002C33.9824 36.3535 34.1209 36.26 34.2595 36.1432C34.398 36.0263 34.5365 35.8628 34.675 35.6524C34.7904 35.8861 34.952 36.0731 35.1829 36.2366C35.4138 36.4002 35.6677 36.4703 35.9678 36.4703H36.3141H36.3834H38.7843V28.6187H37.5608V35.2318ZM33.59 34.9748C33.4284 35.1851 33.1744 35.2786 32.8281 35.2786C32.4818 35.2786 32.2279 35.1851 32.0663 34.9748C31.9047 34.7645 31.8123 34.5074 31.8123 34.2036C31.8123 34.0167 31.8354 33.8531 31.9047 33.6895C31.9509 33.5259 32.0201 33.4091 32.1125 33.2923C32.2048 33.1754 32.3202 33.1053 32.4357 33.0352C32.5511 32.9885 32.6896 32.9417 32.8281 32.9417C32.9666 32.9417 33.0821 32.9651 33.1975 33.0352C33.3129 33.082 33.4284 33.1754 33.5207 33.2923C33.6131 33.4091 33.6823 33.5259 33.7516 33.6895C33.7977 33.8531 33.8439 34.0167 33.8439 34.2036C33.8439 34.5308 33.7516 34.7878 33.59 34.9748Z" fill="black"/>
<path d="M41.7856 28.6655H40.562V36.5172H41.7856V28.6655Z" fill="black"/>
<path d="M48.8728 30.886C48.9882 30.7691 49.0575 30.6056 49.0575 30.442C49.0575 30.2784 48.9882 30.1148 48.8728 29.998C48.7573 29.8811 48.5957 29.811 48.4111 29.811C48.2264 29.811 48.0648 29.8811 47.9493 29.998C47.8339 30.1148 47.7646 30.2784 47.7646 30.442C47.7646 30.6056 47.8339 30.7691 47.9493 30.886C48.0648 31.0028 48.2264 31.0729 48.4111 31.0729C48.5957 31.0729 48.7573 31.0028 48.8728 30.886Z" fill="black"/>
<path d="M46.726 31.0729C46.9107 31.0729 47.0723 31.0028 47.1877 30.886C47.3031 30.7691 47.3724 30.6056 47.3724 30.442C47.3724 30.2784 47.3031 30.1148 47.1877 29.998C47.0723 29.8811 46.9107 29.811 46.726 29.811C46.5413 29.811 46.3797 29.8811 46.2643 29.998C46.1488 30.1148 46.0796 30.2784 46.0796 30.442C46.0796 30.6056 46.1488 30.7691 46.2643 30.886C46.3797 31.0028 46.5413 31.0729 46.726 31.0729Z" fill="black"/>
<path d="M51.6431 35.232H50.4426H50.3733H49.6808V33.9467C49.6808 33.6196 49.6346 33.3391 49.5423 33.0587C49.4499 32.7783 49.3114 32.568 49.1267 32.3577C48.942 32.1707 48.7112 32.0072 48.4572 31.9137C48.2033 31.7968 47.9262 31.7501 47.603 31.7501C47.2567 31.7501 46.9566 31.8202 46.6796 31.9604C46.4026 32.1006 46.1486 32.2876 45.9639 32.5213C45.7562 32.7549 45.5946 33.0354 45.4791 33.3391C45.3637 33.6429 45.2944 33.9701 45.2944 34.3206C45.2944 34.601 45.3406 34.8581 45.433 35.1151C45.5253 35.3722 45.6638 35.6058 45.8485 35.8162C46.0332 36.0265 46.2871 36.1901 46.6103 36.3303C46.9105 36.4471 47.2798 36.5172 47.7415 36.5172H50.3964H50.4657H52.8666V28.6655H51.6431V35.232ZM48.4341 35.232H47.6723C47.5107 35.232 47.3722 35.2086 47.2337 35.1619C47.0951 35.1151 46.9797 35.045 46.8643 34.9749C46.7489 34.8814 46.6796 34.7646 46.6103 34.6244C46.5411 34.4842 46.518 34.2972 46.518 34.1103C46.518 33.9233 46.5411 33.7831 46.6103 33.6429C46.6565 33.5027 46.7488 33.3859 46.8412 33.2924C46.9335 33.1989 47.049 33.1055 47.1644 33.0587C47.2798 33.012 47.4183 32.9653 47.5338 32.9653C47.8339 32.9653 48.0647 33.0821 48.2264 33.2924C48.388 33.5261 48.4572 33.8299 48.4572 34.2505V35.232H48.4341Z" fill="black"/>
<path d="M74.3369 35.232H73.1364H73.0671H72.767C72.3977 35.232 72.1437 35.1385 72.0052 34.9515C71.8667 34.7646 71.7974 34.5309 71.7974 34.2271V28.6655H70.5508V34.6711C70.5508 34.8581 70.5277 34.9749 70.4584 35.0917C70.4123 35.1852 70.2968 35.2553 70.1352 35.2553H69.1425H69.0963H68.2191C67.8728 35.2553 67.6189 35.2553 67.4573 35.232C67.919 34.788 68.2191 34.3907 68.3807 33.9935C68.5423 33.6196 68.6116 33.269 68.6116 32.9653C68.6116 32.825 68.5654 32.6848 68.473 32.5213C68.3807 32.3811 68.2653 32.2408 68.0806 32.1006C67.8959 31.9838 67.6881 31.867 67.4111 31.7968C67.134 31.7267 66.8339 31.68 66.4646 31.68C66.2337 31.68 65.9797 31.7034 65.7489 31.7501C65.518 31.7969 65.2872 31.867 65.0563 31.9604C64.8254 32.0539 64.6177 32.1474 64.4099 32.2642C64.2021 32.381 64.0174 32.4979 63.8789 32.6381L63.9251 33.5261C63.9482 33.6196 64.0174 33.7364 64.0867 33.8532C64.156 33.9935 64.2714 34.1337 64.3637 34.2739C64.4792 34.4141 64.5946 34.5776 64.71 34.7179C64.8485 34.8814 64.964 35.0216 65.1025 35.1385C65.0101 35.1619 64.9178 35.1852 64.7793 35.1852C64.6638 35.2086 64.5253 35.2086 64.3637 35.2086H63.371C63.3479 35.2086 63.3249 35.2086 63.3018 35.2086H62.9093C62.7015 35.2086 62.5168 35.1852 62.4014 35.1151C62.286 35.045 62.1706 34.9749 62.1244 34.8814C62.0782 34.788 62.009 34.6945 62.009 34.601C61.9859 34.5075 61.9859 34.4141 61.9859 34.344C61.9859 33.5261 61.8012 32.8952 61.4318 32.4512C61.0624 32.0072 60.5315 31.7735 59.8158 31.7735C59.4926 31.7735 59.1925 31.8436 58.9385 31.9604C58.6615 32.0773 58.4306 32.2642 58.2229 32.4745C58.0151 32.6848 57.8766 32.9419 57.7611 33.2457C57.6457 33.5495 57.5995 33.8532 57.5995 34.2038C57.5995 34.4141 57.5765 34.5776 57.5534 34.7179C57.5072 34.8581 57.461 34.9515 57.4148 35.045C57.3456 35.1151 57.2763 35.1619 57.2071 35.2086C57.1378 35.232 57.0455 35.2553 56.9762 35.2553H56.5607C56.5376 35.2553 56.5145 35.2553 56.4683 35.2553H55.8681V28.6889H54.6445V36.5172H56.5607H56.6068H57.0455C57.2763 36.5172 57.5072 36.4471 57.6919 36.3069C57.8766 36.1667 58.0151 35.9797 58.1305 35.7694C58.3152 36.0031 58.523 36.19 58.8 36.3536C59.077 36.4938 59.4233 36.5639 59.8158 36.5639C60.0005 36.5639 60.1621 36.5639 60.3237 36.5406C60.4853 36.5172 60.6469 36.4938 60.8085 36.4471C60.9701 36.4004 61.1086 36.3069 61.2471 36.1901C61.3856 36.0732 61.5242 35.9096 61.6627 35.6993C61.7781 35.933 61.9397 36.1199 62.1706 36.2835C62.4014 36.4471 62.6554 36.5172 62.9555 36.5172H63.3249H63.371H64.4099C64.71 36.5172 65.0332 36.4705 65.3564 36.4004C65.6796 36.3303 65.9797 36.2134 66.2568 36.0498C66.4415 36.1433 66.6723 36.2601 66.9955 36.3536C67.3187 36.4471 67.7343 36.5172 68.2191 36.5172H69.0963H69.1425H70.1814C70.4815 36.5172 70.7585 36.4471 70.9663 36.3303C71.1972 36.2134 71.3588 36.0265 71.4973 35.7928C71.5896 35.9797 71.7512 36.1433 71.9359 36.2835C72.1206 36.4237 72.3746 36.5172 72.6978 36.5172H73.0441H73.1133H75.5373V28.6655H74.3369V35.232ZM60.6238 34.9749C60.4622 35.1852 60.2082 35.2787 59.862 35.2787C59.5157 35.2787 59.2617 35.1852 59.1001 34.9749C58.9385 34.7646 58.8462 34.5075 58.8462 34.2038C58.8462 34.0168 58.8693 33.8532 58.9385 33.6897C58.9847 33.5261 59.054 33.4093 59.1463 33.2924C59.2386 33.1756 59.3541 33.1055 59.4695 33.0354C59.5849 32.9886 59.7234 32.9419 59.862 32.9419C60.0005 32.9419 60.1159 32.9653 60.2313 33.0354C60.3468 33.0821 60.4622 33.1756 60.5545 33.2924C60.6469 33.4093 60.7161 33.5261 60.7854 33.6897C60.8316 33.8532 60.8777 34.0168 60.8777 34.2038C60.8777 34.5309 60.7854 34.788 60.6238 34.9749ZM67.4111 33.5495C67.3649 33.6897 67.2726 33.8065 67.1802 33.9467C67.0879 34.0869 66.9494 34.2271 66.8108 34.344C66.6723 34.4842 66.5107 34.5777 66.3722 34.6945C66.2337 34.601 66.0952 34.4842 65.9567 34.344C65.8181 34.2038 65.7027 34.0636 65.5873 33.9233C65.4719 33.7831 65.3795 33.6429 65.2872 33.5261C65.2179 33.4093 65.1487 33.3158 65.1256 33.2457C65.2872 33.1522 65.518 33.0587 65.772 32.9886C66.049 32.9185 66.303 32.8952 66.5338 32.8952C66.6492 32.8952 66.7647 32.8952 66.8801 32.9185C66.9955 32.9185 67.0879 32.9419 67.1802 32.9653C67.2726 32.9886 67.3418 33.012 67.4111 33.0587C67.4803 33.1055 67.5034 33.1522 67.5034 33.1989C67.4803 33.2924 67.4572 33.4092 67.4111 33.5495Z" fill="black"/>
<path d="M87.6576 37.2661C87.473 37.2661 87.3114 37.3362 87.1959 37.4531C87.0805 37.5699 87.0112 37.7335 87.0112 37.897C87.0112 38.084 87.0805 38.2242 87.1959 38.3644C87.3114 38.4812 87.473 38.5514 87.6576 38.5514C87.8423 38.5514 88.0039 38.4812 88.1194 38.3644C88.2348 38.2476 88.304 38.084 88.304 37.897C88.304 37.7101 88.2348 37.5699 88.1194 37.4531C88.0039 37.3128 87.8423 37.2661 87.6576 37.2661Z" fill="black"/>
<path d="M87.9573 32.1487H86.7337V35.2333H85.3255H85.2562H84.2635V33.9481C84.2635 33.6209 84.2173 33.3405 84.125 33.0601C84.0326 32.803 83.8941 32.5693 83.7094 32.359C83.5248 32.1721 83.317 32.0085 83.063 31.915C82.8091 31.7982 82.509 31.7515 82.1858 31.7515C81.8395 31.7515 81.5394 31.8216 81.2623 31.9618C80.9853 32.102 80.7544 32.2889 80.5467 32.5226C80.3389 32.7563 80.1773 33.0367 80.0849 33.3405C79.9695 33.6443 79.9233 33.9714 79.9233 34.322C79.9233 34.6024 79.9695 34.8594 80.0619 35.1165C80.1542 35.3735 80.2927 35.6072 80.4774 35.8175C80.6621 36.0278 80.916 36.1914 81.2161 36.3316C81.5163 36.4484 81.9087 36.5186 82.3474 36.5186H83.063C83.063 36.7756 83.0169 36.9625 82.9245 37.1261C82.8322 37.2663 82.7398 37.3832 82.5782 37.4766C82.4397 37.5701 82.2781 37.6168 82.0934 37.6402C81.9087 37.6636 81.724 37.687 81.5163 37.687C81.3778 37.687 81.2162 37.687 81.0315 37.6636C80.8468 37.6402 80.639 37.6169 80.4312 37.5935L80.3389 38.832C80.5467 38.8787 80.7544 38.9021 80.9391 38.9021C81.1238 38.9021 81.2854 38.9255 81.4701 38.9255C81.8626 38.9255 82.2319 38.8787 82.5551 38.7853C82.8783 38.6918 83.1785 38.5516 83.4324 38.3646C83.6863 38.1777 83.871 37.9206 84.0096 37.6169C84.1481 37.3131 84.2404 36.9392 84.2635 36.5186H85.2562H85.3255H87.9573V32.1487ZM83.0169 35.2333H82.255C82.0934 35.2333 81.9549 35.2099 81.8164 35.1632C81.6779 35.1165 81.5624 35.0464 81.447 34.9763C81.3316 34.8828 81.2623 34.7659 81.1931 34.6257C81.1238 34.4855 81.1007 34.2986 81.1007 34.1116C81.1007 33.9247 81.1238 33.7845 81.1931 33.6443C81.2392 33.5041 81.3316 33.3872 81.4239 33.2938C81.5163 33.2003 81.6317 33.1068 81.7471 33.0601C81.8626 33.0133 82.0011 32.9666 82.1165 32.9666C82.3935 32.9666 82.6244 33.0834 82.786 33.2938C82.9476 33.5274 83.0399 33.8312 83.0399 34.2518V35.2333H83.0169Z" fill="black"/>
<path d="M85.9721 37.2661C85.7874 37.2661 85.6258 37.3362 85.5104 37.4531C85.3949 37.5699 85.3257 37.7335 85.3257 37.897C85.3257 38.084 85.3949 38.2242 85.5104 38.3644C85.6258 38.4812 85.7874 38.5514 85.9721 38.5514C86.1568 38.5514 86.3184 38.4812 86.4338 38.3644C86.5492 38.2476 86.6185 38.084 86.6185 37.897C86.6185 37.7101 86.5492 37.5699 86.4338 37.4531C86.3184 37.3128 86.1568 37.2661 85.9721 37.2661Z" fill="black"/>
<path d="M93.1057 36.2378C93.1057 36.635 93.0596 36.9388 92.9441 37.1258C92.8287 37.3361 92.6209 37.4295 92.2977 37.4295C92.2285 37.4295 92.1361 37.4295 92.0438 37.4062C91.9514 37.4062 91.8591 37.3828 91.7668 37.3594L91.4666 37.2893L91.3281 38.5279C91.3743 38.5512 91.4205 38.5512 91.4666 38.5512C91.5128 38.5512 91.559 38.5746 91.6052 38.5746C91.6975 38.598 91.7898 38.598 91.9053 38.6213C92.0207 38.6447 92.1361 38.6447 92.2747 38.6447C92.5979 38.6447 92.898 38.5746 93.1519 38.4577C93.4059 38.3409 93.6136 38.1773 93.7983 37.967C93.983 37.7567 94.0984 37.4997 94.1908 37.2192C94.2831 36.9388 94.3293 36.635 94.3293 36.3079V32.125H93.1057V36.2378V36.2378Z" fill="black"/>
<path d="M104.21 29.998C104.095 30.1148 104.025 30.2784 104.025 30.442C104.025 30.6056 104.095 30.7691 104.21 30.886C104.326 31.0028 104.487 31.0729 104.672 31.0729C104.856 31.0729 105.018 31.0028 105.134 30.886C105.249 30.7691 105.318 30.6056 105.318 30.442C105.318 30.2784 105.249 30.1148 105.134 29.998C105.018 29.8811 104.856 29.811 104.672 29.811C104.487 29.811 104.349 29.8578 104.21 29.998Z" fill="black"/>
<path d="M106.149 32.3346C105.965 32.1477 105.757 32.0075 105.526 31.8906C105.272 31.7972 104.995 31.7271 104.695 31.7271C104.326 31.7271 104.002 31.7972 103.702 31.9374C103.402 32.0776 103.148 32.2412 102.94 32.4748C102.733 32.7085 102.571 32.9422 102.456 33.2226C102.34 33.503 102.271 33.8068 102.271 34.1106C102.271 34.4144 102.294 34.6481 102.363 34.835C102.432 35.0219 102.479 35.1622 102.548 35.2323H101.186H101.14H100.124V33.947C100.124 33.6199 100.078 33.3395 99.9853 33.059C99.893 32.802 99.7545 32.5683 99.5698 32.358C99.3851 32.171 99.1773 32.0075 98.9234 31.914C98.6694 31.7972 98.3693 31.7504 98.0461 31.7504C97.6998 31.7504 97.3997 31.8205 97.1227 31.9607C96.8457 32.1009 96.6148 32.2879 96.407 32.5216C96.1992 32.7552 96.0376 33.0357 95.9453 33.3394C95.8299 33.6432 95.7837 33.9704 95.7837 34.3209C95.7837 34.6013 95.8299 34.8584 95.9222 35.1154C96.0146 35.3725 96.1531 35.6062 96.3378 35.8165C96.5224 36.0268 96.7764 36.1904 97.0765 36.3306C97.3766 36.4474 97.7691 36.5175 98.2077 36.5175H98.9234C98.9234 36.7746 98.8772 36.9615 98.7849 37.1251C98.6925 37.2653 98.6002 37.3821 98.4386 37.4756C98.3001 37.5691 98.1385 37.6158 97.9538 37.6392C97.7691 37.6625 97.5844 37.6859 97.3766 37.6859C97.2381 37.6859 97.0765 37.6859 96.8918 37.6625C96.7071 37.6392 96.4994 37.6158 96.2916 37.5924L96.1992 38.8309C96.407 38.8777 96.6148 38.9011 96.7995 38.9011C96.9842 38.9011 97.1458 38.9244 97.3305 38.9244C97.7229 38.9244 98.0923 38.8777 98.4155 38.7842C98.7387 38.6907 99.0388 38.5505 99.2928 38.3636C99.5467 38.1766 99.7314 37.9196 99.8699 37.6158C100.008 37.312 100.101 36.9381 100.124 36.5175H101.14H101.186H106.68V33.9003C106.68 33.5731 106.634 33.2927 106.542 33.0123C106.472 32.7552 106.334 32.5216 106.149 32.3346ZM98.9234 35.2323H98.1616C97.9999 35.2323 97.8614 35.2089 97.7229 35.1622C97.5844 35.1154 97.469 35.0453 97.3535 34.9752C97.2381 34.8817 97.1689 34.7649 97.0996 34.6247C97.0303 34.4845 97.0073 34.2975 97.0073 34.1106C97.0073 33.9237 97.0303 33.7834 97.0996 33.6432C97.1458 33.503 97.2381 33.3862 97.3305 33.2927C97.4228 33.1992 97.5382 33.1058 97.6537 33.059C97.7691 33.0123 97.9076 32.9656 98.023 32.9656C98.3001 32.9656 98.5309 33.0824 98.6925 33.2927C98.8541 33.5264 98.9465 33.8302 98.9465 34.2508V35.2323H98.9234ZM105.457 35.2323H104.51C104.326 35.2089 104.141 35.1622 104.002 35.0687C103.887 34.9986 103.771 34.8817 103.656 34.7182C103.541 34.578 103.494 34.3676 103.494 34.0872C103.494 33.9003 103.517 33.7601 103.587 33.6199C103.656 33.4797 103.725 33.3628 103.818 33.2693C103.91 33.1759 104.025 33.0824 104.164 33.0357C104.279 32.9889 104.418 32.9422 104.556 32.9422C104.718 32.9422 104.833 32.9656 104.949 33.0123C105.064 33.059 105.157 33.1291 105.226 33.2226C105.295 33.3161 105.341 33.4096 105.387 33.503C105.411 33.5965 105.434 33.7133 105.434 33.8068V35.2323H105.457Z" fill="black"/>
<path d="M111.783 36.2378C111.783 36.635 111.736 36.9388 111.621 37.1258C111.505 37.3361 111.298 37.4295 110.974 37.4295C110.905 37.4295 110.813 37.4295 110.721 37.4062C110.628 37.4062 110.536 37.3828 110.444 37.3594L110.143 37.2893L110.005 38.5279C110.051 38.5512 110.097 38.5512 110.143 38.5512C110.19 38.5512 110.236 38.5746 110.282 38.5746C110.374 38.598 110.467 38.598 110.582 38.6213C110.697 38.6447 110.813 38.6447 110.951 38.6447C111.275 38.6447 111.575 38.5746 111.829 38.4577C112.083 38.3409 112.29 38.1773 112.475 37.967C112.66 37.7567 112.775 37.4997 112.868 37.2192C112.96 36.9388 113.006 36.635 113.006 36.3079V32.125H111.783V36.2378V36.2378Z" fill="black"/>
<path d="M118.269 32.359C118.085 32.1721 117.877 32.0085 117.623 31.915C117.369 31.7982 117.069 31.7515 116.769 31.7515C116.422 31.7515 116.122 31.8216 115.845 31.9618C115.568 32.102 115.314 32.2889 115.13 32.5226C114.922 32.7563 114.76 33.0367 114.668 33.3405C114.553 33.6443 114.506 33.9714 114.506 34.322C114.506 34.6024 114.553 34.8594 114.645 35.1165C114.737 35.3735 114.876 35.6072 115.06 35.8175C115.245 36.0278 115.499 36.1914 115.799 36.3316C116.099 36.4484 116.492 36.5186 116.93 36.5186H117.669C117.646 36.7756 117.6 36.9625 117.508 37.1261C117.415 37.2663 117.3 37.3832 117.161 37.4766C117.023 37.5701 116.861 37.6168 116.676 37.6402C116.492 37.6636 116.307 37.687 116.099 37.687C115.961 37.687 115.799 37.687 115.614 37.6636C115.43 37.6402 115.222 37.6169 115.014 37.5935L114.922 38.832C115.153 38.8787 115.361 38.9021 115.545 38.9021C115.73 38.9021 115.892 38.9255 116.053 38.9255C116.469 38.9255 116.838 38.8787 117.184 38.7853C117.531 38.6918 117.831 38.5516 118.062 38.3413C118.292 38.1309 118.5 37.8739 118.639 37.5467C118.777 37.2196 118.847 36.8223 118.847 36.3783V33.9481C118.847 33.6209 118.8 33.3405 118.708 33.0601C118.593 32.7797 118.454 32.5693 118.269 32.359ZM117.6 35.2333H116.838C116.676 35.2333 116.538 35.2099 116.399 35.1632C116.261 35.1165 116.122 35.0464 116.03 34.9763C115.915 34.8828 115.845 34.7659 115.776 34.6257C115.707 34.4855 115.684 34.2986 115.684 34.1116C115.684 33.9247 115.707 33.7845 115.776 33.6443C115.822 33.5041 115.915 33.3872 116.007 33.2938C116.099 33.2003 116.215 33.1068 116.33 33.0601C116.446 33.0133 116.584 32.9666 116.7 32.9666C116.977 32.9666 117.207 33.0834 117.369 33.2938C117.531 33.5274 117.623 33.8312 117.623 34.2518V35.2333H117.6Z" fill="black"/>
<path d="M124.203 37.2661C124.018 37.2661 123.856 37.3362 123.741 37.4531C123.625 37.5699 123.556 37.7335 123.556 37.897C123.556 38.084 123.625 38.2242 123.741 38.3644C123.856 38.4812 124.018 38.5514 124.203 38.5514C124.387 38.5514 124.526 38.4812 124.664 38.3644C124.78 38.2476 124.849 38.084 124.849 37.897C124.849 37.7101 124.78 37.5699 124.664 37.4531C124.526 37.3128 124.387 37.2661 124.203 37.2661Z" fill="black"/>
<path d="M123.764 35.232H122.332H122.263H121.594V28.6655H120.37V36.5172H122.263H122.332H124.987V32.1474H123.764V35.232Z" fill="black"/>
<path d="M134.476 34.3908C134.407 34.1571 134.337 33.9234 134.245 33.7131C134.153 33.4794 134.06 33.2925 133.968 33.1289L132.814 33.8066C132.998 34.1104 133.16 34.4375 133.275 34.8114C133.391 35.1853 133.46 35.5358 133.46 35.863C133.46 36.0967 133.414 36.3303 133.345 36.5406C133.275 36.751 133.137 36.9145 132.998 37.0781C132.837 37.2183 132.652 37.3352 132.421 37.4286C132.19 37.5221 131.936 37.5688 131.636 37.5688C131.313 37.5688 131.036 37.5221 130.805 37.4286C130.574 37.3352 130.367 37.2183 130.228 37.0781C130.066 36.9379 129.974 36.751 129.882 36.564C129.789 36.3771 129.766 36.1901 129.766 35.9798C129.766 35.7228 129.789 35.4891 129.859 35.2554C129.928 35.0217 130.043 34.7647 130.205 34.5076L129.166 33.9C128.958 34.2038 128.797 34.531 128.681 34.9049C128.566 35.2788 128.497 35.6293 128.497 35.9798C128.497 36.3537 128.543 36.7042 128.658 37.0314C128.774 37.3819 128.935 37.6857 129.189 37.9427C129.443 38.1998 129.743 38.4335 130.136 38.5737C130.528 38.7372 131.013 38.8073 131.567 38.8073C132.075 38.8073 132.537 38.7139 132.929 38.5503C133.322 38.3867 133.645 38.153 133.899 37.8726C134.153 37.5922 134.36 37.2651 134.499 36.8912C134.637 36.5173 134.707 36.12 134.707 35.6994C134.707 35.5124 134.684 35.2788 134.637 35.0451C134.591 34.8581 134.545 34.6245 134.476 34.3908Z" fill="black"/>
<path d="M131.567 32.3112C131.752 32.3112 131.914 32.2411 132.029 32.1242C132.144 32.0074 132.214 31.8438 132.214 31.6803C132.214 31.4933 132.144 31.3531 132.029 31.2363C131.914 31.1194 131.752 31.0493 131.567 31.0493C131.383 31.0493 131.244 31.1194 131.106 31.2363C130.99 31.3531 130.921 31.5167 130.921 31.6803C130.921 31.8672 130.99 32.0074 131.106 32.1242C131.221 32.2411 131.383 32.3112 131.567 32.3112Z" fill="black"/>
<path d="M143.41 33.2701C143.318 32.9663 143.202 32.7093 143.018 32.4756C142.833 32.2653 142.625 32.0783 142.348 31.9615C142.071 31.8446 141.771 31.7745 141.402 31.7745C141.079 31.7745 140.778 31.8446 140.501 31.9615C140.224 32.0783 139.994 32.2419 139.786 32.4756C139.578 32.6859 139.416 32.9429 139.324 33.2467C139.209 33.5505 139.162 33.8777 139.162 34.2282C139.162 34.9059 138.932 35.2564 138.493 35.2564H138.124H138.054H137.362V28.6899H136.138V36.5182H138.054H138.1H138.539C138.747 36.5182 138.955 36.4481 139.162 36.3313C139.347 36.2145 139.509 36.0275 139.601 35.7705C139.717 35.934 139.855 36.0509 139.994 36.1444C140.132 36.2378 140.271 36.3313 140.432 36.378C140.594 36.4248 140.755 36.4715 140.894 36.4949C141.055 36.5182 141.217 36.5182 141.379 36.5182C141.771 36.5182 142.094 36.4481 142.371 36.3313C142.648 36.2145 142.856 36.0509 143.041 35.8406C143.226 35.6303 143.341 35.3966 143.41 35.1162C143.48 34.8357 143.526 34.5787 143.526 34.2749C143.549 33.9244 143.503 33.5739 143.41 33.2701ZM142.117 34.9993C141.956 35.2096 141.702 35.3265 141.356 35.3265C140.986 35.3265 140.732 35.2096 140.571 34.9993C140.409 34.789 140.34 34.532 140.34 34.2282C140.34 34.0412 140.363 33.8777 140.432 33.7141C140.478 33.5505 140.548 33.4337 140.64 33.3168C140.732 33.2 140.848 33.1299 140.963 33.0598C141.079 33.013 141.217 32.9663 141.356 32.9663C141.494 32.9663 141.61 32.9897 141.725 33.0598C141.84 33.1299 141.956 33.2 142.048 33.3168C142.141 33.4337 142.21 33.5505 142.279 33.7141C142.325 33.8777 142.371 34.0412 142.371 34.2282C142.371 34.532 142.279 34.789 142.117 34.9993Z" fill="black"/>
<path d="M181.723 11.7547C184.93 11.7547 187.53 9.12328 187.53 5.87733C187.53 2.63137 184.93 0 181.723 0C178.517 0 175.917 2.63137 175.917 5.87733C175.917 9.12328 178.517 11.7547 181.723 11.7547Z" fill="#FF99CC"/>
<path d="M189.566 35.1551C189.602 35.1551 189.62 35.1551 189.656 35.1551L192.621 34.9562C194.301 34.8477 195.873 35.8061 196.552 37.3433L203.127 52.0095H209.862L203.234 37.2529C202.716 36.1136 203.591 34.8296 204.824 34.8838L206.932 34.9924H206.914C206.182 34.8658 205.449 34.7573 204.717 34.6849C203.716 34.5583 202.716 34.4679 201.697 34.4137C200.715 34.3594 199.714 34.3232 198.714 34.3232C197.499 34.3232 196.266 34.3775 195.051 34.4679C194.283 34.5222 193.515 34.5945 192.764 34.703C191.71 34.7934 190.62 34.9562 189.566 35.1551Z" fill="#FF7C44"/>
<path d="M205.86 30.1101C203.913 29.6941 201.912 29.3686 199.893 29.1878C198.356 29.0431 196.82 28.9889 195.284 28.9889C194.408 28.9889 193.586 29.0069 192.836 29.0612L192.389 28.0666L190.299 23.3828L188.012 28.5006L187.512 29.6037C187.405 29.6218 187.298 29.6399 187.172 29.658C183.778 30.2005 180.419 31.1228 177.186 32.3706C175.881 32.8769 174.595 33.4375 173.327 34.0524C174.13 33.5822 174.756 32.895 175.131 32.1174C175.738 30.8877 175.81 29.4229 175.22 28.0846L173.112 23.4009L168.02 34.7215L167.306 36.3129L166.52 38.049L166.109 38.9532C161.196 42.5157 156.944 46.9463 153.585 52.028H153.531L154.55 49.7855C154.55 49.7855 154.55 49.7855 154.567 49.7675L156.247 46.0241L169.771 15.9141H176.489L181.706 27.5602L186.94 15.9141H193.658L196.516 22.2797C197.392 24.2327 198.696 25.9507 200.304 27.2889C200.786 27.7049 201.304 28.0666 201.84 28.4102C203.055 29.1697 204.413 29.7484 205.86 30.1101Z" fill="#FF7C44"/>
<path d="M153.567 52.01C156.282 45.9518 161.946 40.1287 165.287 37.7055C165.966 37.2172 166.645 36.747 167.341 36.2949L166.555 38.031L166.144 38.9352C161.231 42.4978 156.979 46.9284 153.62 52.01H153.567Z" fill="#E56538"/>
<path d="M153.621 52.0098H160.231C160.267 51.9736 160.285 51.9375 160.32 51.9013C165.466 45.7165 172.04 40.7796 179.526 37.651C181.205 36.9458 182.956 36.3309 184.725 35.8065C188.03 34.8299 191.478 34.197 195.033 33.9438C196.248 33.8534 197.481 33.7991 198.732 33.7991C199.732 33.7991 200.751 33.8353 201.733 33.8895C215.329 34.7033 227.46 40.9966 236 50.6173C227.728 38.9893 214.722 31.0684 199.857 29.694C198.356 29.5494 196.838 29.4951 195.284 29.4951C194.533 29.4951 193.801 29.5132 193.068 29.5494C191.103 29.6398 189.173 29.8387 187.262 30.1461C183.832 30.6887 180.526 31.611 177.364 32.8226C173.344 34.3778 169.575 36.4394 166.145 38.935C161.231 42.4976 156.979 46.9282 153.621 52.0098Z" fill="#4D002E"/>
</svg>
