<svg width="100" height="100" viewBox="0 0 100 100" fill="none" xmlns="http://www.w3.org/2000/svg">
<g clip-path="url(#clip0_119_12459)">
<path d="M56.851 -0.120222C55.6941 -0.210366 54.7777 0.045043 54.2067 0.721124C52.2837 2.6442 39.979 19.5913 38.8221 21.5144C40.7452 19.5913 46.875 22.7163 52.6442 28.4855C58.4135 34.2548 61.5385 40.3846 59.6154 42.3077C61.5385 41.1508 78.095 28.8461 80.4087 26.923C82.3317 24.2337 78.4405 16.5565 71.5144 9.25478C66.0307 3.771 60.3366 0.165235 56.851 -0.120222ZM37.9808 26.5625C37.6803 26.6226 37.4549 26.7277 37.2596 26.923C36.1028 28.0799 27.3588 38.8521 26.2019 40.3846C27.3588 39.2277 31.5805 41.1057 35.8173 44.9519C40.0541 48.798 41.9171 53.0348 40.3846 54.5673C41.5415 53.4104 52.3137 45.042 53.8462 43.5096C55.3786 41.9771 52.6743 36.9441 48.4375 32.3317C44.3961 28.6358 40.0241 26.1118 37.9808 26.5625ZM26.5625 44.9519C26.1719 44.9519 25.7212 45.042 25.7212 45.4327L15.3846 55.7692C14.6184 56.5354 15.8203 59.5703 18.5096 62.2596C21.1989 63.792 23.107 65.3846 24.6394 65.3846C24.8348 65.3846 24.97 65.4297 25.1202 65.3846L25.3606 65.024L35.8173 54.5673C36.5836 53.8011 35.3816 50.7662 32.6923 48.0769C31.2049 46.8299 29.7626 45.9285 28.4856 45.4327C28.2602 45.3125 28.095 45.2674 27.8846 45.1923C27.4189 45.0571 26.9531 44.9519 26.5625 44.9519ZM50 52.6442L42.3077 58.8942L23.0769 92.3077H30.7692L42.3077 71.1538V100H50V52.6442ZM19.7116 56.8509C20.4027 57.3167 21.0787 58.0228 21.875 58.8942C22.6262 59.7205 23.2422 60.3816 23.6779 61.0577C22.9567 60.652 22.2356 59.9759 21.5144 59.2548C20.7482 58.4886 19.982 57.7374 19.5914 56.9711L19.7116 56.8509ZM53.8462 58.8942V71.1538L65.3846 92.3077H73.0769L53.8462 58.8942Z" fill="#FF7F48"/>
</g>
<defs>
<clipPath id="clip0_119_12459">
<rect width="100" height="100" fill="white"/>
</clipPath>
</defs>
</svg>
