<svg width="100" height="100" viewBox="0 0 100 100" fill="none" xmlns="http://www.w3.org/2000/svg">
<g clip-path="url(#clip0_119_12463)">
<path d="M36.458 68.75C36.0372 68.75 35.6393 68.4917 35.483 68.075L19.9164 21.0042L4.12469 68C3.96427 68.5521 3.38927 68.8584 2.83302 68.7104C2.28094 68.5479 1.96427 67.9709 2.12469 67.4188L18.7914 17.4188C18.9164 16.9854 19.3039 16.6854 19.7518 16.6667C20.2143 16.6979 20.6101 16.9229 20.7664 17.3417L37.433 67.3417C37.6351 67.8813 37.3622 68.4813 36.8247 68.6834C36.7039 68.7292 36.5809 68.75 36.458 68.75Z" fill="#FF7F48"/>
<path d="M9.97316 72.7041C9.9315 72.7021 9.88983 72.6979 9.84816 72.6896C9.2815 72.5916 8.90233 72.05 9.00233 71.4833L18.1127 19.8229C18.2127 19.2583 18.7586 18.8667 19.319 18.9792C19.8857 19.0771 20.2648 19.6187 20.1648 20.1854L11.0544 71.8437C10.9627 72.3687 10.4919 72.7312 9.97316 72.7041Z" fill="#FF7F48"/>
<path d="M19.7919 79.1667C30.3711 79.1667 39.0127 73.925 39.5565 67.3292C39.5857 66.9709 39.2815 66.6667 38.9232 66.6667H0.660662C0.302329 66.6667 -0.00183794 66.9709 0.0273287 67.3292C0.571079 73.925 9.21274 79.1667 19.7919 79.1667Z" fill="#FF7F48"/>
<path d="M39.5086 67.6313C39.5211 67.5292 39.5482 67.4313 39.5565 67.3292C39.5857 66.9709 39.2815 66.6667 38.9232 66.6667H0.660662C0.302329 66.6667 -0.00183794 66.9709 0.0273287 67.3292C0.0356621 67.4313 0.0627454 67.5292 0.0752454 67.6313H39.5086Z" fill="#FF7F48"/>
<path d="M10.2624 68.75H2.93945C4.43112 71.7729 10.279 77.0458 18.727 78.0354C15.1957 76.35 12.5665 74.7792 10.2624 68.75Z" fill="#FF7F48"/>
<path d="M96.875 68.75C96.4542 68.75 96.0563 68.4917 95.9 68.075L80.3334 21.0042L64.5417 68C64.3813 68.5521 63.8063 68.8583 63.25 68.7104C62.6979 68.5479 62.3813 67.9709 62.5417 67.4188L79.2084 17.4188C79.3334 16.9875 79.7208 16.6854 80.1688 16.6688C80.6313 16.7 81.0271 16.925 81.1833 17.3438L97.85 67.3438C98.0521 67.8834 97.7792 68.4834 97.2417 68.6854C97.1208 68.7292 96.9979 68.75 96.875 68.75Z" fill="#FF7F48"/>
<path d="M70.3892 72.7041C70.3475 72.7021 70.3058 72.6979 70.2642 72.6896C69.6975 72.5916 69.3183 72.05 69.4183 71.4833L78.5267 19.8229C78.6267 19.2583 79.1725 18.8667 79.7329 18.9792C80.2996 19.0771 80.6788 19.6187 80.5788 20.1854L71.4704 71.8458C71.3788 72.3687 70.9079 72.7312 70.3892 72.7041Z" fill="#FF7F48"/>
<path d="M80.2079 79.1667C90.7871 79.1667 99.4288 73.925 99.9725 67.3292C100.002 66.9709 99.6975 66.6667 99.3392 66.6667H61.0767C60.7183 66.6667 60.4142 66.9709 60.4433 67.3292C60.9871 73.925 69.6288 79.1667 80.2079 79.1667Z" fill="#FF7F48"/>
<path d="M99.9246 67.6313C99.9371 67.5292 99.9642 67.4313 99.9725 67.3292C100.002 66.9709 99.6975 66.6667 99.3392 66.6667H61.0767C60.7183 66.6667 60.4142 66.9709 60.4433 67.3292C60.4517 67.4313 60.4788 67.5292 60.4913 67.6313H99.9246Z" fill="#FF7F48"/>
<path d="M70.6794 68.75H63.3564C64.8481 71.7729 70.696 77.0458 79.1439 78.0354C75.6127 76.35 72.9835 74.7792 70.6794 68.75Z" fill="#FF7F48"/>
<path d="M68.75 13.0646C73.4833 13.0646 81.0396 19.3187 87.8479 14.2354C88.0917 14.0479 88.3729 14.2354 88.3542 14.5917C86.7396 17.4833 82.95 19.3146 81.25 19.3146C75 19.3146 74.6896 17.2312 68.75 17.2312H50V13.0646H68.75Z" fill="#FF7F48"/>
<path d="M31.2504 13.0646C26.517 13.0646 19.0379 19.4 12.2295 14.3167C11.6399 13.8771 11.3879 14 11.7441 14.7375C13.167 17.6833 17.0504 19.3146 18.7504 19.3146C25.0004 19.3146 25.3108 17.2312 31.2504 17.2312H50.0004V13.0646H31.2504Z" fill="#FF7F48"/>
<path d="M68.75 12.5C73.4833 12.5 81.0271 19.1792 87.8354 14.0958C88.425 13.6562 88.7521 14.0854 88.2563 14.7396C86.0542 17.6312 82.95 18.75 81.25 18.75C75 18.75 74.6896 16.6667 68.75 16.6667H50V12.5H68.75Z" fill="#FF7F48"/>
<path d="M81.2503 21.875V15.625C81.2503 15.05 80.7837 14.5833 80.2087 14.5833C79.6337 14.5833 79.167 15.05 79.167 15.625V21.875C79.167 22.45 79.6337 22.9166 80.2087 22.9166C80.7837 22.9166 81.2503 22.45 81.2503 21.875Z" fill="#FF7F48"/>
<path d="M52.0837 10.4167H47.917V85.4167H52.0837V10.4167Z" fill="#FF7F48"/>
<path d="M52.0837 12.5H47.917V31.25H52.0837V12.5Z" fill="#FF7F48"/>
<path d="M31.2496 12.5C26.5163 12.5 18.9725 19.1792 12.1642 14.0958C11.5746 13.6562 11.2475 14.0854 11.7434 14.7396C13.9455 17.6312 17.0496 18.75 18.7496 18.75C24.9996 18.75 25.31 16.6667 31.2496 16.6667H49.9996V12.5H31.2496Z" fill="#FF7F48"/>
<path d="M18.75 21.875V15.625C18.75 15.05 19.2167 14.5833 19.7917 14.5833C20.3667 14.5833 20.8333 15.05 20.8333 15.625V21.875C20.8333 22.45 20.3667 22.9166 19.7917 22.9166C19.2167 22.9166 18.75 22.45 18.75 21.875Z" fill="#FF7F48"/>
<path d="M66.6663 12.5H52.083V16.6667H66.6663V12.5Z" fill="#FF7F48"/>
<path d="M62.3125 91.6667C61.3188 85.7563 56.1917 81.25 50 81.25C43.8083 81.25 38.6813 85.7563 37.6875 91.6667H62.3125Z" fill="#FF7F48"/>
<path d="M53.3024 9.05414H46.6982V22.1521H53.3024V9.05414Z" fill="#FF7F48"/>
<path d="M49.9997 8.33333C52.3009 8.33333 54.1663 6.46785 54.1663 4.16667C54.1663 1.86548 52.3009 0 49.9997 0C47.6985 0 45.833 1.86548 45.833 4.16667C45.833 6.46785 47.6985 8.33333 49.9997 8.33333Z" fill="#FF7F48"/>
<path d="M49.9999 15.6916C50.612 15.6916 51.1083 15.1954 51.1083 14.5833C51.1083 13.9712 50.612 13.475 49.9999 13.475C49.3878 13.475 48.8916 13.9712 48.8916 14.5833C48.8916 15.1954 49.3878 15.6916 49.9999 15.6916Z" fill="#FF7F48"/>
<path d="M53.2376 10.4167H46.6543V13.475H53.2376V10.4167Z" fill="#FF7F48"/>
<path d="M53.1247 10.4166H46.8747C46.2997 10.4166 45.833 9.94998 45.833 9.37498C45.833 8.79998 46.2997 8.33331 46.8747 8.33331H53.1247C53.6997 8.33331 54.1663 8.79998 54.1663 9.37498C54.1663 9.94998 53.6997 10.4166 53.1247 10.4166Z" fill="#FF7F48"/>
<path d="M53.1247 22.9166H46.8747C46.2997 22.9166 45.833 22.45 45.833 21.875C45.833 21.3 46.2997 20.8333 46.8747 20.8333H53.1247C53.6997 20.8333 54.1663 21.3 54.1663 21.875C54.1663 22.45 53.6997 22.9166 53.1247 22.9166Z" fill="#FF7F48"/>
<path d="M40.7396 85.4167C39.1896 87.1417 38.0896 89.2792 37.6875 91.6667H62.3125C61.9104 89.2792 60.8104 87.1417 59.2604 85.4167H40.7396Z" fill="#FF7F48"/>
<path d="M63.3417 89.5834H36.6583C33.6708 89.5834 31.25 92.0042 31.25 94.9917V97.4896C31.25 97.725 31.4417 97.9167 31.6771 97.9167H68.3229C68.5583 97.9167 68.75 97.725 68.75 97.4896V94.9917C68.75 92.0042 66.3292 89.5834 63.3417 89.5834Z" fill="#FF7F48"/>
<path d="M63.3417 89.5834H36.6583C33.6708 89.5834 31.25 92.0042 31.25 94.9917V97.4917C31.25 97.725 31.4417 97.9167 31.6771 97.9167H32.225V95.0875C32.225 92.5709 34.2646 90.5313 36.7813 90.5313H63.2167C65.7333 90.5313 67.7729 92.5709 67.7729 95.0875V97.9167H68.3208C68.5583 97.9167 68.75 97.725 68.75 97.4896V94.9896C68.75 92.0042 66.3292 89.5834 63.3417 89.5834Z" fill="#FF7F48"/>
<path d="M31.25 97.1792V97.4896C31.25 97.725 31.4417 97.9167 31.6771 97.9167H68.3229C68.5583 97.9167 68.75 97.725 68.75 97.4896V97.1792H31.25Z" fill="#FF7F48"/>
</g>
<defs>
<clipPath id="clip0_119_12463">
<rect width="100" height="100" fill="white"/>
</clipPath>
</defs>
</svg>
