<svg width="100" height="100" viewBox="0 0 100 100" fill="none" xmlns="http://www.w3.org/2000/svg">
<path d="M50.0003 0C50.0003 0 34.6157 11.5385 34.6157 26.9231C34.6157 33.5637 36.1031 46.875 37.5003 58.774L30.7695 67.3077V76.9231L39.183 73.5577C39.6037 75.4207 41.1511 76.9231 43.0291 76.9231H56.4907C58.4138 76.9231 59.9462 75.3606 60.3368 73.4375L69.2311 76.9231V67.3077L62.2599 58.6538C63.7773 46.7849 65.3849 33.5337 65.3849 26.9231C65.3849 11.5385 50.0003 0 50.0003 0ZM50.0003 19.2308C54.2371 19.2308 57.6926 22.6863 57.6926 26.9231C57.6926 31.1599 54.2371 34.6154 50.0003 34.6154C45.7635 34.6154 42.308 31.1599 42.308 26.9231C42.308 22.6863 45.7635 19.2308 50.0003 19.2308ZM42.6686 80.7692C41.9023 82.3017 41.5868 83.8041 41.5868 85.3365C41.5868 90.7151 49.2791 100 49.2791 100C49.2791 100 56.9715 90.7151 56.9715 85.3365C57.7377 83.8041 57.2569 82.3017 56.4907 80.7692H53.1253C53.5159 81.5355 53.4859 82.2867 53.4859 83.0529C53.4859 85.7422 49.6397 90.3846 49.6397 90.3846C49.6397 90.3846 45.7936 85.7422 45.7936 83.0529C45.7936 82.2867 46.1541 81.5355 46.1541 80.7692H42.6686Z" fill="#FF7F48"/>
</svg>
