<svg width="157" height="178" viewBox="0 0 157 178" fill="none" xmlns="http://www.w3.org/2000/svg">
<g clip-path="url(#clip0_119_12434)">
<path d="M45.8655 38.7278L53.4687 67.1447L32.2391 45.9307C28.5857 42.2799 28.5857 36.4091 32.2391 32.7583L62.3061 2.71341C65.9596 -0.937362 71.8841 -0.937362 75.4882 2.71341L88.2259 15.4418L52.4319 27.3315C47.4948 28.6635 44.5325 33.7943 45.8655 38.7278Z" fill="#FF99CC"/>
<path d="M59.3438 84.0172C59.1956 83.8692 59.0475 83.7212 58.8994 83.5238C59.0969 83.7212 59.1956 83.8692 59.3438 84.0172Z" fill="#4D002E"/>
<path d="M107.826 33.597L79.4869 27.4795C74.5004 26.1475 69.4152 29.1075 68.0822 34.0904L58.0105 71.6835L57.0725 75.1369C56.875 75.9263 56.7762 76.765 56.7762 77.5543C56.7762 77.8503 56.7762 78.097 56.8256 78.393C56.8256 78.4424 56.8256 78.4917 56.8256 78.541C56.8256 78.689 56.875 78.7877 56.875 78.9357C56.9243 79.3304 57.0231 79.7251 57.1218 80.0704C57.1712 80.1691 57.1712 80.2677 57.2206 80.3664C57.3687 80.7611 57.5168 81.1064 57.6649 81.5011C57.7637 81.7478 57.9118 81.9945 58.0599 82.2411C58.1092 82.3398 58.208 82.4878 58.2574 82.5865C58.3067 82.6851 58.4055 82.7838 58.5042 82.9318C58.5536 83.0305 58.6523 83.1292 58.7511 83.2772C58.7511 83.2772 58.7511 83.3265 58.8004 83.3265C57.9611 82.3398 57.3193 81.1558 56.9737 79.8237L53.6165 67.194L45.8652 38.7278C44.5322 33.745 47.4945 28.6635 52.4809 27.3315L90.0523 17.2672L93.5083 16.3298C98.4948 14.9978 103.58 17.9579 104.913 22.9407L107.826 33.597Z" fill="#FF7C44"/>
<path d="M58.949 83.5238C58.8996 83.4745 58.8503 83.3758 58.8009 83.3265L58.7515 83.2772L58.7021 83.2278C58.7515 83.3265 58.8503 83.4252 58.949 83.5238Z" fill="#4D002E"/>
<path d="M127.13 49.9268L116.12 90.9734C114.787 95.9562 109.653 98.9163 104.716 97.5843L63.6391 86.5826C62.2073 86.1879 60.9236 85.4479 59.8869 84.5599C59.7387 84.4119 59.5413 84.2639 59.3931 84.1159L59.3438 84.0665C59.1957 83.9185 59.0475 83.7705 58.8994 83.5732C58.8501 83.5238 58.8007 83.4252 58.7513 83.3758L58.7019 83.3265L58.6526 83.2772C58.5538 83.1785 58.5045 83.0798 58.4057 82.9318C58.307 82.8332 58.2576 82.7345 58.1589 82.5865C58.1095 82.4878 58.0108 82.3398 57.9614 82.2411C57.8133 81.9945 57.7145 81.7478 57.5664 81.5011C57.3689 81.1558 57.2208 80.7611 57.1221 80.3664C57.0727 80.2677 57.0727 80.1691 57.0233 80.0704C56.9246 79.6757 56.8258 79.281 56.7765 78.9357C56.7765 78.7877 56.7271 78.689 56.7271 78.541C56.7271 78.4917 56.7271 78.4423 56.7271 78.393C56.7271 78.097 56.6777 77.8503 56.6777 77.5543C56.6777 76.765 56.7765 75.9263 56.974 75.1369L57.912 71.6835L67.9837 34.0904C69.3661 29.1075 74.5007 26.1475 79.4872 27.4795L107.184 34.8797L108.27 35.1757L120.564 38.4812C125.501 39.8132 128.463 44.944 127.13 49.9268Z" fill="#4D002E"/>
<path d="M3.4066 119.242V137.151H10.3679V139.864H0V119.242H3.4066Z" fill="black"/>
<path d="M26.8086 135.671H18.1687L16.6875 139.864H13.1328L20.5385 119.193H24.4388L31.8444 139.864H28.2897L26.8086 135.671ZM22.5133 123.337L19.1067 132.908H25.8705L22.5133 123.337Z" fill="black"/>
<path d="M43.052 140.111C38.9049 140.111 35.7451 137.841 35.7451 134.191H39.3492C39.4973 135.868 40.6822 137.249 43.052 137.249C45.4218 137.249 46.7549 135.967 46.7549 134.24C46.7549 129.257 35.7945 132.513 35.7945 124.866C35.7945 121.265 38.658 118.996 42.9039 118.996C46.8536 118.996 49.6678 121.068 49.964 124.62H46.2118C46.113 123.238 44.8788 121.956 42.7558 121.906C40.781 121.857 39.2998 122.794 39.2998 124.768C39.2998 129.405 50.2108 126.494 50.2108 134.043C50.2108 137.101 47.6929 140.111 43.052 140.111Z" fill="black"/>
<path d="M58.8011 130.639V139.864H55.3945V119.242H58.8011V128.665L66.7993 119.242H71.0452L62.0596 129.553L71.1933 139.864H66.7499L58.8011 130.639Z" fill="black"/>
<path d="M87.8311 135.671H79.1911L77.71 139.864H74.1553L81.5609 119.193H85.4613L92.8669 139.864H89.3122L87.8311 135.671ZM83.5358 123.337L80.1292 132.908H86.893L83.5358 123.337Z" fill="black"/>
<path d="M104.42 119.242C109.307 119.242 111.726 122.054 111.726 125.409C111.726 127.826 110.443 130.441 106.937 131.329L112.023 139.864H107.974L103.235 131.625H100.667V139.864H97.2607V119.242H104.42ZM104.42 122.005H100.667V128.912H104.42C107.086 128.912 108.27 127.481 108.27 125.409C108.27 123.337 107.036 122.005 104.42 122.005Z" fill="black"/>
<path d="M134.931 129.652C134.931 136.016 130.587 139.914 123.971 139.914H117.207V119.292H123.971C130.636 119.242 134.931 123.238 134.931 129.652ZM123.971 137.101C128.859 137.101 131.475 134.289 131.475 129.603C131.475 124.866 128.859 121.956 123.971 121.956H120.614V137.052H123.971V137.101Z" fill="black"/>
<path d="M151.964 135.671H143.324L141.843 139.864H138.288L145.694 119.193H149.594L157 139.864H153.445L151.964 135.671ZM147.619 123.337L144.213 132.908H150.976L147.619 123.337Z" fill="black"/>
<path d="M3.35723 150.817H0V172.129H3.35723V150.817Z" fill="black"/>
<path d="M16.2924 160.289C15.6999 159.845 15.0088 159.549 14.2682 159.351C13.5276 159.203 12.7377 159.105 11.8984 159.105H8.34366V162.41H11.2565C11.7996 162.41 12.2933 162.46 12.7377 162.509C13.182 162.558 13.577 162.756 13.8732 163.002C14.1694 163.249 14.4163 163.545 14.5644 163.989C14.7125 164.384 14.8113 164.976 14.8113 165.617V168.626H6.66504V172.08H18.2179V165.37C18.2179 164.038 18.0204 163.002 17.6748 162.164C17.3786 161.374 16.8849 160.733 16.2924 160.289Z" fill="black"/>
<path d="M24.6358 171.389C24.6358 172.475 24.4877 173.264 24.1914 173.807C23.8952 174.349 23.3028 174.645 22.4141 174.645C22.2166 174.645 21.9697 174.645 21.7229 174.596C21.476 174.547 21.2292 174.547 20.9823 174.497L20.143 174.3L19.748 177.704C19.8962 177.753 20.0443 177.753 20.143 177.803C20.2911 177.803 20.3899 177.852 20.538 177.852C20.7848 177.901 21.0317 177.951 21.3773 177.951C21.6735 178 22.0191 178 22.4141 178C23.3028 178 24.1421 177.852 24.8333 177.507C25.5245 177.161 26.1169 176.717 26.6106 176.175C27.1043 175.583 27.4499 174.941 27.6968 174.152C27.9436 173.363 28.0424 172.524 28.0424 171.636V160.289H24.6358V171.389V171.389Z" fill="black"/>
<path d="M133.599 168.676H131.821C130.834 168.676 130.143 168.429 129.748 167.886C129.353 167.393 129.205 166.702 129.205 165.913V161.868H125.798V167.097C125.798 167.59 125.749 167.985 125.6 168.281C125.452 168.528 125.156 168.676 124.712 168.676H123.971C122.984 168.676 122.293 168.429 121.898 167.886C121.503 167.393 121.355 166.702 121.355 165.913V163.002H117.997V167.097C117.997 167.59 117.948 167.936 117.8 168.232C117.652 168.528 117.356 168.626 116.911 168.626H111.925H111.777H107.086H106.988H102.297H102.199H97.5083H97.4096H92.7194H92.6206H87.9797H87.7823H86.8442C85.9555 168.626 85.2643 168.38 84.8694 167.936C84.425 167.492 84.2275 166.653 84.1782 165.518C84.1782 164.384 84.0301 163.397 83.7338 162.608C83.4376 161.818 82.9933 161.226 82.4502 160.733C81.9071 160.239 81.2653 159.894 80.4753 159.697C79.7348 159.499 78.8955 159.401 77.9574 159.401H77.5131L82.0552 152.395L79.2411 150.521L73.4646 159.697V162.706H77.2168C78.0068 162.706 78.6486 162.756 79.0929 162.904C79.5373 163.052 79.8829 163.298 80.1297 163.594C80.3766 163.94 80.5247 164.384 80.5741 164.926C80.6234 165.469 80.6728 166.209 80.6728 167.048C80.6728 167.541 80.5741 167.886 80.426 168.133C80.2778 168.38 79.9816 168.528 79.4879 168.528H71.6873H71.5885H66.8983H66.7995H62.1093H62.0106H57.2709H57.1722H52.4819H52.3338H47.6436H47.5448H42.8546H42.7558H38.0656H37.9668H36.0414V150.669H32.6348V171.981H37.9175H38.0162H42.7065H42.8546H47.5448H47.6929H52.3832H52.5313H57.2216H57.3697H62.0599H62.208H66.8983H67.0464H71.6873H71.8848H79.8829C80.6728 171.981 81.364 171.784 82.0058 171.438C82.6477 171.093 83.1414 170.6 83.487 170.008C83.7832 170.501 84.1782 170.945 84.6719 171.34C85.1656 171.734 85.8568 171.932 86.7455 171.932H87.7823H87.9797H92.6206H92.7687H97.459H97.6071H102.297H102.445H107.136H107.284H111.925H112.122H117.059C117.948 171.932 118.738 171.784 119.38 171.438C120.022 171.093 120.515 170.649 120.861 170.008C121.157 170.501 121.552 170.945 122.046 171.34C122.539 171.734 123.28 171.932 124.169 171.932H125.107C125.946 171.932 126.687 171.784 127.328 171.438C127.97 171.093 128.464 170.6 128.81 169.958C129.106 170.452 129.501 170.896 129.995 171.29C130.488 171.685 131.179 171.882 132.019 171.882H137.252V160.042H133.895V168.676H133.599Z" fill="black"/>
<path d="M153.593 150.817V168.676H149.792V156.391H146.385V168.676H140.312V172.129H157V150.817H153.593Z" fill="black"/>
</g>
<defs>
<clipPath id="clip0_119_12434">
<rect width="157" height="178" fill="white"/>
</clipPath>
</defs>
</svg>
